<svg id="ab785112-558b-4e67-a8be-e6b53b06b3c4" data-name="b6dedaff-d82d-417c-8563-b58798d6f0cb" xmlns="http://www.w3.org/2000/svg" xmlns:xlink="http://www.w3.org/1999/xlink" width="865.8" height="682.9" viewBox="0 0 865.8 682.9"><defs><clipPath id="e0b4c813-478e-4bc2-85ba-892fbfb1b1be"><path d="M94,550.5c-.6,3-3.1,10.2-2.4,13.7,3.1,2.6,9.8,2.8,14.8,1.5s8.5,1.3,14.8,1.7,11.3-1.3,12.5-3.9c1.4-2.8-9.4-5-16.7-7.2-8.2-2.5-12.4-6.5-12.4-6.5Z" fill="none"/></clipPath><clipPath id="b9fc1045-6960-4e50-b455-d2b5a39c60eb"><path d="M29,524.7c-3,.8-10.5,1.6-13.4,3.7-1,3.9,1.7,10,4.9,14s2.5,8.2,4.8,14.1,6,9.6,8.9,9.6c3.1,0,.5-10.6-.6-18.2-1.2-8.5.6-14,.6-14Z" fill="none"/></clipPath><clipPath id="b8aaca58-d2bd-4603-9a69-382ee24e06cc"><path d="M762.5,551.9c-.1,3.2.8,10.9-.6,14.2-3.7,2-10.4.7-15.1-1.7s-8.8-.6-15.1-1.6-11-3.8-11.7-6.7c-.8-3.1,10.5-2.9,18.3-3.6,8.7-.7,13.9-3.8,13.9-3.8Z" fill="none"/></clipPath><clipPath id="ee7f4f68-0493-4007-a88d-25e1236d5518"><path d="M841.3,532.4c2.4,2.1,8.8,6.4,10.4,9.7-.9,4.1-6.2,8.3-11.1,10.4s-6.1,6.3-11,10.5-10,5.8-12.7,4.5c-2.8-1.5,4.6-9.8,9.2-16.2,5.1-7.1,6.1-13,6.1-13Z" fill="none"/></clipPath><clipPath id="e84ecf64-3085-4f7e-8b37-8a39e0218ec9"><path d="M828.4,530.9S796.8,478,794.1,473c-2.3-4.2-13.1-69.3-13.9-74.6,0,0-16-20.2-16.4-31.3l29.6-8.2c1.8,6.8,11.4,6.9,18.7,23.2,6.3,14.2,4.6,44.5,1.3,83.5,0,0,5.5,2.9,8.2,10.7,3.8,10.7,17,49.9,17,49.9A12.15,12.15,0,0,1,828.4,530.9Z" fill="none"/></clipPath></defs><path d="M770.4,314.4c-4.2,11.3-13,37.1-14.2,38.4,0,0-31.9-3.1-39.9-4.3l-.5-.1c-3.6-.6-2.6-1.8-5.5-3.2s-5.4-1.2-7.6-2.2-2.2,1.3-.7,2.5c1,.5,2,1,3,1.4,1.7.9-3.1,1.1-3.1,1.1h-.3a113.13,113.13,0,0,0-11.3,1c-6.3,1.1-1.8,6,3.1,9.1,6.6,4.2,17.7.1,25.9.8s37.8,9.6,41.8,8,21.1-36.5,21.1-36.5l.6-31.2C776.8,300.5,774.5,303.1,770.4,314.4Z" fill="#f9b499"/><path d="M422.4,145.9H613.8a9.39,9.39,0,0,1,9.4,9.4V526.7a9.39,9.39,0,0,1-9.4,9.4H422.4a9.39,9.39,0,0,1-9.4-9.4V155.3A9.39,9.39,0,0,1,422.4,145.9Z" fill="#fff" opacity="0.55" style="isolation:isolate"/><path d="M618.1,112.8h-200A18.27,18.27,0,0,0,399.9,131h0V551.2a18.2,18.2,0,0,0,18.2,18.2h200a18.2,18.2,0,0,0,18.2-18.2h0V131a18.2,18.2,0,0,0-18.2-18.2Zm5.1,414a9.39,9.39,0,0,1-9.4,9.4H422.4a9.39,9.39,0,0,1-9.4-9.4V155.3a9.39,9.39,0,0,1,9.4-9.4H613.8a9.39,9.39,0,0,1,9.4,9.4Z" fill="#2f2e41"/><path d="M418.1,569.3h200a18.2,18.2,0,0,0,18.2-18.2h0V131a18.36,18.36,0,0,0-4.2-11.6L618,146.9a9.44,9.44,0,0,1,5.2,8.4V526.7a9.39,9.39,0,0,1-9.4,9.4H422.4a8.6,8.6,0,0,1-3.9-.9L404.3,563A17.82,17.82,0,0,0,418.1,569.3Z" opacity="0.2" style="isolation:isolate"/><path d="M507.5,135.4a6.1,6.1,0,1,1,6.1-6.1h0A6.06,6.06,0,0,1,507.5,135.4Z" fill="#fff"/><path d="M555.1,129.3h0a3.76,3.76,0,0,0-3.7-3.7H527.2a3.76,3.76,0,0,0-3.7,3.7h0a3.69,3.69,0,0,0,3.7,3.7h24.2A3.63,3.63,0,0,0,555.1,129.3Z" fill="#fff"/><path d="M438.5,187.5H548.9a1.79,1.79,0,0,1,1.8,1.8V299.7a1.79,1.79,0,0,1-1.8,1.8H438.5a1.79,1.79,0,0,1-1.8-1.8V189.3A1.93,1.93,0,0,1,438.5,187.5Z" fill="#e4e4e4"/><text transform="translate(432.6 327.68)" font-size="20.9" fill="#bcbec0" font-family="Amaranth-Regular, Amaranth" style="isolation:isolate">$5.99</text><path d="M434.4,183.3H544.8a1.79,1.79,0,0,1,1.8,1.8V295.5a1.79,1.79,0,0,1-1.8,1.8H434.4a1.79,1.79,0,0,1-1.8-1.8V185.1A1.86,1.86,0,0,1,434.4,183.3Z" fill="#fffff8"/><path d="M523.9,307.1h22.2a.47.47,0,0,1,.5.5v23.2a.47.47,0,0,1-.5.5H523.9a.47.47,0,0,1-.5-.5V307.6A.47.47,0,0,1,523.9,307.1Z" fill="#bcbec0"/><polyline points="536.9 326.7 529.5 326.7 529.5 314.2 540.5 314.2 540.5 323" fill="none" stroke="#fff" stroke-miterlimit="10" stroke-width="0.54"/><circle cx="532.3" cy="316.3" r="0.8" fill="#fff"/><path d="M536.9,316.3a.8.8,0,1,1,.8.8.74.74,0,0,1-.8-.8Z" fill="#fff"/><path d="M532.3,315.9v-2.8a2.69,2.69,0,0,1,2.7-2.7h0a2.69,2.69,0,0,1,2.7,2.7v2.8" fill="none" stroke="#fff" stroke-miterlimit="10" stroke-width="0.36"/><line x1="540.5" y1="326.7" x2="540.5" y2="324" fill="none" stroke="#fff" stroke-miterlimit="10" stroke-width="0.54"/><line x1="540.5" y1="329.4" x2="540.5" y2="326.7" fill="none" stroke="#fff" stroke-miterlimit="10" stroke-width="0.54"/><line x1="540.5" y1="326.7" x2="537.8" y2="326.7" fill="none" stroke="#fff" stroke-miterlimit="10" stroke-width="0.54"/><line x1="543.2" y1="326.7" x2="540.5" y2="326.7" fill="none" stroke="#fff" stroke-miterlimit="10" stroke-width="0.54"/><path d="M489.6,272.9h28.6L516,226.1l9.8,11.7,12.9-13.9s-16.9-20.8-19.9-22.4-16.8-2.8-16.8-2.8c-.3,4.4-3.7,11.6-12.3,11.6s-12.1-7.2-12.4-11.6c0,0-13.8,1.1-16.8,2.8s-20,22.4-20,22.4l12.9,13.9,9.8-11.7L461,272.9Z" fill="#889aaf"/><path d="M570.1,355.6H680.5a1.79,1.79,0,0,1,1.8,1.8V467.8a1.79,1.79,0,0,1-1.8,1.8H570.1a1.79,1.79,0,0,1-1.8-1.8V357.4A1.79,1.79,0,0,1,570.1,355.6Z" fill="#e4e4e4"/><text transform="translate(564.15 495.81)" font-size="20.9" fill="#bcbec0" font-family="Amaranth-Regular, Amaranth" style="isolation:isolate">$4.99</text><path d="M566,351.5H676.3a1.79,1.79,0,0,1,1.8,1.8V463.7a1.79,1.79,0,0,1-1.8,1.8H566a1.79,1.79,0,0,1-1.8-1.8V353.3A1.79,1.79,0,0,1,566,351.5Z" fill="#fffff8"/><path d="M656,475.2h21.1a1.11,1.11,0,0,1,1.1,1.1v22a1.11,1.11,0,0,1-1.1,1.1H656a1.11,1.11,0,0,1-1.1-1.1v-22A1.11,1.11,0,0,1,656,475.2Z" fill="#bcbec0"/><polyline points="668.4 494.8 661 494.8 661 482.3 672 482.3 672 491.2" fill="none" stroke="#fff" stroke-miterlimit="10" stroke-width="0.54"/><path d="M663.1,484.5a.79.79,0,0,1,.8-.8h0a.79.79,0,0,1,.8.8.74.74,0,0,1-.8.8A.79.79,0,0,1,663.1,484.5Z" fill="#fff"/><path d="M668.4,484.5a.79.79,0,0,1,.8-.8h0a.79.79,0,0,1,.8.8.74.74,0,0,1-.8.8A.86.86,0,0,1,668.4,484.5Z" fill="#fff"/><path d="M663.9,484v-2.8a2.69,2.69,0,0,1,2.7-2.7h0a2.69,2.69,0,0,1,2.7,2.7V484" fill="none" stroke="#fff" stroke-miterlimit="10" stroke-width="0.36"/><line x1="672" y1="494.8" x2="672" y2="492.1" fill="none" stroke="#fff" stroke-miterlimit="10" stroke-width="0.54"/><line x1="672" y1="497.5" x2="672" y2="494.8" fill="none" stroke="#fff" stroke-miterlimit="10" stroke-width="0.54"/><line x1="672" y1="494.8" x2="669.4" y2="494.8" fill="none" stroke="#fff" stroke-miterlimit="10" stroke-width="0.54"/><line x1="674.7" y1="494.8" x2="672" y2="494.8" fill="none" stroke="#fff" stroke-miterlimit="10" stroke-width="0.54"/><path d="M621.1,441h28.6l-2.2-46.8,9.8,11.8,12.9-14s-16.9-20.8-19.9-22.4-16.8-2.8-16.8-2.8c-.3,4.4-3.7,11.6-12.3,11.6s-12.1-7.2-12.3-11.6c0,0-13.8,1.1-16.8,2.8S572,392,572,392l13,14,9.8-11.7-2.2,46.8Z" fill="#2f2e41"/><path d="M570.1,187.5H680.5a1.79,1.79,0,0,1,1.8,1.8V299.7a1.79,1.79,0,0,1-1.8,1.8H570.1a1.79,1.79,0,0,1-1.8-1.8V189.3a1.79,1.79,0,0,1,1.8-1.8Z" fill="#e4e4e4"/><text transform="translate(564.15 327.68)" font-size="20.9" fill="#bcbec0" font-family="Amaranth-Regular, Amaranth" style="isolation:isolate">$10.99</text><path d="M566,183.3H676.3a1.79,1.79,0,0,1,1.8,1.8V295.5a1.79,1.79,0,0,1-1.8,1.8H566a1.79,1.79,0,0,1-1.8-1.8V185.1a1.86,1.86,0,0,1,1.8-1.8Z" fill="#fffff8"/><path d="M656,307.1h21.1a1.11,1.11,0,0,1,1.1,1.1v22a1.11,1.11,0,0,1-1.1,1.1H656a1.11,1.11,0,0,1-1.1-1.1v-22A1.11,1.11,0,0,1,656,307.1Z" fill="#bcbec0"/><polyline points="668.4 326.7 661 326.7 661 314.2 672 314.2 672 323" fill="none" stroke="#fff" stroke-miterlimit="10" stroke-width="0.54"/><circle cx="663.9" cy="316.3" r="0.8" fill="#fff"/><circle cx="669.2" cy="316.3" r="0.8" fill="#fff"/><path d="M663.9,315.9v-2.8a2.69,2.69,0,0,1,2.7-2.7h0a2.69,2.69,0,0,1,2.7,2.7v2.8" fill="none" stroke="#fff" stroke-miterlimit="10" stroke-width="0.36"/><line x1="672" y1="326.7" x2="672" y2="324" fill="none" stroke="#fff" stroke-miterlimit="10" stroke-width="0.54"/><line x1="672" y1="329.4" x2="672" y2="326.7" fill="none" stroke="#fff" stroke-miterlimit="10" stroke-width="0.54"/><line x1="672" y1="326.7" x2="669.4" y2="326.7" fill="none" stroke="#fff" stroke-miterlimit="10" stroke-width="0.54"/><line x1="674.7" y1="326.7" x2="672" y2="326.7" fill="none" stroke="#fff" stroke-miterlimit="10" stroke-width="0.54"/><path d="M595.1,211c-8.9,8.6-7.5,18.1-4.3,29.3s4.6,32.6,4.6,32.6h7.8s-.9-23.7,4.6-25.5,15.6,18.7,17.6,21.9,6.3,3.6,11,3.6H664s8.1-6.3-6.6-13.4c-9.5-4.6-11.2-5.8-11.2-5.8s-12.5-.5-25.5-13.4c-5.1-5.1-11.3-18.9-15.9-23.8C599.5,211,595.1,211,595.1,211Z" fill="#2f2e41"/><path d="M438.6,355.6H549a1.79,1.79,0,0,1,1.8,1.8V467.8a1.79,1.79,0,0,1-1.8,1.8H438.5a1.79,1.79,0,0,1-1.8-1.8V357.4a1.88,1.88,0,0,1,1.9-1.8Z" fill="#e4e4e4"/><text transform="translate(432.6 495.81)" font-size="20.9" fill="#bcbec0" font-family="Amaranth-Regular, Amaranth" style="isolation:isolate">$9.99</text><path d="M434.4,351.5H544.8a1.79,1.79,0,0,1,1.8,1.8V463.7a1.79,1.79,0,0,1-1.8,1.8H434.4a1.79,1.79,0,0,1-1.8-1.8V353.3A1.79,1.79,0,0,1,434.4,351.5Z" fill="#fffff8"/><path d="M524.5,475.2h21.1a1.11,1.11,0,0,1,1.1,1.1v22a1.11,1.11,0,0,1-1.1,1.1H524.5a1.11,1.11,0,0,1-1.1-1.1v-22A1.11,1.11,0,0,1,524.5,475.2Z" fill="#bcbec0"/><polyline points="536.9 494.8 529.5 494.8 529.5 482.3 540.5 482.3 540.5 491.2" fill="none" stroke="#fff" stroke-miterlimit="10" stroke-width="0.54"/><path d="M531.5,484.5a.8.8,0,1,1,1.6,0,.74.74,0,0,1-.8.8.79.79,0,0,1-.8-.8Z" fill="#fff"/><path d="M536.9,484.5a.8.8,0,0,1,1.6,0,.74.74,0,0,1-.8.8.79.79,0,0,1-.8-.8Z" fill="#fff"/><path d="M532.3,484v-2.8a2.69,2.69,0,0,1,2.7-2.7h0a2.69,2.69,0,0,1,2.7,2.7V484" fill="none" stroke="#fff" stroke-miterlimit="10" stroke-width="0.36"/><line x1="540.5" y1="494.8" x2="540.5" y2="492.1" fill="none" stroke="#fff" stroke-miterlimit="10" stroke-width="0.54"/><line x1="540.5" y1="497.5" x2="540.5" y2="494.8" fill="none" stroke="#fff" stroke-miterlimit="10" stroke-width="0.54"/><line x1="540.5" y1="494.8" x2="537.8" y2="494.8" fill="none" stroke="#fff" stroke-miterlimit="10" stroke-width="0.54"/><line x1="543.2" y1="494.8" x2="540.5" y2="494.8" fill="none" stroke="#fff" stroke-miterlimit="10" stroke-width="0.54"/><path d="M463.5,379.1c-8.9,8.6-7.5,18.1-4.3,29.3s4.6,32.6,4.6,32.6h7.8s-.9-23.7,4.6-25.5,15.6,18.7,17.6,21.9,6.3,3.6,11,3.6h27.6s8.1-6.3-6.6-13.4c-9.5-4.6-11.2-5.8-11.2-5.8s-12.5-.5-25.5-13.4c-5.1-5-11.3-18.9-15.9-23.8C467.9,379.1,463.5,379.1,463.5,379.1Z" fill="#889aaf"/><polygon points="213.8 463.4 265 463.4 265 503.5 226.2 503.5 213.8 463.4" fill="#bcbec0"/><rect x="265" y="463.4" width="20.4" height="40.1" fill="#d1d3d4"/><rect x="285.4" y="463.4" width="41" height="40.1" fill="#bcbec0"/><polygon points="344.9 503.5 326.4 503.5 326.4 463.4 352.7 463.4 344.9 503.5" fill="#d1d3d4"/><path d="M248.4,396.8V384a12.29,12.29,0,0,1,12.3-12.3h0A12.29,12.29,0,0,1,273,384v12.8" fill="none" stroke="#e6e7e8" stroke-linecap="round" stroke-miterlimit="10" stroke-width="0.83"/><polygon points="276.7 390.6 224.6 390.6 218.4 463.4 270.5 463.4 276.7 390.6" fill="#d1d3d4"/><polygon points="285.8 390.6 276.7 390.6 270.5 463.4 278.7 463.4 283.8 463.4 291.9 463.4 285.8 390.6" fill="#bcbec0"/><polygon points="270.5 463.4 281.2 453.8 291.9 463.4 270.5 463.4" fill="#a7a9ac"/><path d="M236.1,397.8a2.1,2.1,0,1,1,2.1,2.1h0A2.18,2.18,0,0,1,236.1,397.8Z" fill="#bcbec0"/><path d="M260.7,397.8a2.1,2.1,0,1,1,2.1,2.1h0a2.18,2.18,0,0,1-2.1-2.1Z" fill="#bcbec0"/><path d="M238.3,396.8V384a12.29,12.29,0,0,1,12.3-12.3h0A12.29,12.29,0,0,1,262.9,384h0v12.8" fill="none" stroke="#e6e7e8" stroke-linecap="round" stroke-miterlimit="10" stroke-width="0.83"/><path d="M309.2,396.8V384a12.29,12.29,0,0,1,12.3-12.3h0A12.29,12.29,0,0,1,333.8,384h0v12.8" fill="none" stroke="#e6e7e8" stroke-linecap="round" stroke-miterlimit="10" stroke-width="0.83"/><polygon points="337.4 390.6 285.3 390.6 279.2 463.4 331.3 463.4 337.4 390.6" fill="#d1d3d4"/><polygon points="346.6 390.6 337.4 390.6 331.3 463.4 339.4 463.4 344.6 463.4 352.7 463.4 346.6 390.6" fill="#bcbec0"/><polygon points="331.3 463.4 342 453.8 352.7 463.4 331.3 463.4" fill="#a7a9ac"/><path d="M341.2,504.5H231a6.87,6.87,0,0,1-6.6-4.8L191.5,399.3a11.83,11.83,0,0,0-11.2-8.1H168.6a.89.89,0,0,1-.8-1,.86.86,0,0,1,.8-.8h11.7a13.54,13.54,0,0,1,12.9,9.4l6.6,20H361.2L348,498.7A6.73,6.73,0,0,1,341.2,504.5ZM200.5,420.6l25.7,78.5a5,5,0,0,0,4.8,3.5H341.2a5.05,5.05,0,0,0,5-4.3L359,420.6Z" fill="#2f2e41"/><path d="M328,547.7H211.5v-.9a44.21,44.21,0,0,1,44.2-44.2H333a.91.91,0,0,1,.2,1.8H255.7a42.43,42.43,0,0,0-42.4,41.5H328a.91.91,0,1,1,.2,1.8Z" fill="#2f2e41"/><path d="M222,558.6a8.9,8.9,0,1,1,8.9,8.9h0A8.92,8.92,0,0,1,222,558.6Z" fill="#2f2e41"/><path d="M229.6,547.6c.1,3.2-.1,7-2.6,10.6s3.3,5.8,9.1,2.3c6.9-4.2,8.8-12.9,8.8-12.9Z" fill="#2f2e41"/><path d="M229.6,547.6c.1,3.2-.1,7-2.6,10.6s3.3,5.8,9.1,2.3c6.9-4.2,8.8-12.9,8.8-12.9Z" opacity="0.2" style="isolation:isolate"/><path d="M229,558.6a1.9,1.9,0,1,1,1.9,1.9,1.9,1.9,0,0,1-1.9-1.9Z" fill="#fff"/><path d="M284.3,558.6a8.9,8.9,0,1,1,8.9,8.9h0A8.92,8.92,0,0,1,284.3,558.6Z" fill="#2f2e41"/><path d="M292,547.6c.1,3.2,0,7-2.6,10.6s3.3,5.8,9.1,2.3c6.9-4.2,8.8-12.9,8.8-12.9Z" fill="#2f2e41"/><path d="M292,547.6c.1,3.2,0,7-2.6,10.6s3.3,5.8,9.1,2.3c6.9-4.2,8.8-12.9,8.8-12.9Z" opacity="0.2" style="isolation:isolate"/><path d="M291.4,558.6a1.9,1.9,0,1,1,1.9,1.9,1.84,1.84,0,0,1-1.9-1.9Z" fill="#fff"/><path d="M355.5,448.7H208.4a.9.9,0,0,1,0-1.8H355.6a.9.9,0,0,1,.9.9A.92.92,0,0,1,355.5,448.7Z" fill="#2f2e41"/><path d="M350.9,476.7H217.6a.89.89,0,0,1-.8-1,.86.86,0,0,1,.8-.8H351a.91.91,0,0,1,.2,1.8Z" fill="#2f2e41"/><rect x="158.1" y="388.9" width="18.2" height="2.7" fill="#2f2e41"/><g opacity="0.2"><rect x="158.1" y="388.9" width="18.2" height="2.7"/></g><path d="M133.7,563.4c.6,1,.1,3.1-4,4.9s-11.7,1-14.7.4-4.8-1.5-9.2-.5-11.7.5-13.9-1.3c-.8-.9-.2-2.7-.2-2.7Z" fill="#2f2e41"/><path d="M94,550.5c-.6,3-3.1,10.2-2.4,13.7,3.1,2.6,9.8,2.8,14.8,1.5s8.5,1.3,14.8,1.7,11.3-1.3,12.5-3.9c1.4-2.8-9.4-5-16.7-7.2-8.2-2.5-12.4-6.5-12.4-6.5Z" fill="#889aaf"/><g clip-path="url(#e0b4c813-478e-4bc2-85ba-892fbfb1b1be)"><path d="M107,556.5h0c-.1,0-.1-.1-.1-.2s1.5-4.2,3.5-5.5h.2v.2c-1.9,1.3-3.4,5.4-3.4,5.4a.35.35,0,0,1-.2.1Z" fill="#fff"/><path d="M112.6,558.7h0c-.1,0-.1-.1-.1-.2s1.5-4.2,3.5-5.5h.2v.2c-1.9,1.3-3.4,5.4-3.4,5.4a.35.35,0,0,1-.2.1Z" fill="#fff"/><path d="M118.2,560.9h0c-.1,0-.1-.1-.1-.2s1.5-4.2,3.5-5.5h.2v.2c-1.9,1.3-3.4,5.4-3.4,5.4a.35.35,0,0,1-.2.1Z" fill="#fff"/></g><path d="M94,538.3v12.1a4.66,4.66,0,0,1,2,1.2c.6.7,1.4,3,2.4,3,3.9.2,6.2-5,6.2-5l1.5-11Z" fill="#f9b499"/><path d="M34.3,566.1c-.7,1-2.8,1.5-6.1-1.5s-5.9-10.1-6.7-13.1-.8-5-3.5-8.6-5.5-10.3-4.7-13.1c.5-1.1,2.3-1.4,2.3-1.4Z" fill="#2f2e41"/><path d="M29,524.7c-3,.8-10.5,1.6-13.4,3.7-1,3.9,1.7,10,4.9,14s2.5,8.2,4.8,14.1,6,9.6,8.9,9.6c3.1,0,.5-10.6-.6-18.2-1.2-8.5.6-14,.6-14Z" fill="#889aaf"/><g clip-path="url(#b9fc1045-6960-4e50-b455-d2b5a39c60eb)"><path d="M35.7,539.9h0c-2.1-1.2-6.4-.8-6.4-.8a.1.1,0,0,1-.1-.1c0-.1,0-.1.1-.1h0c.2,0,4.4-.4,6.5.8a.31.31,0,0,1-.1.2Z" fill="#fff"/><path d="M36.1,545.9h0c-2.1-1.2-6.4-.8-6.4-.8a.1.1,0,0,1-.1-.1c0-.1,0-.1.1-.1h0c.2,0,4.4-.4,6.5.8l-.1.2Z" fill="#fff"/><path d="M36.5,551.8h0c-2.1-1.2-6.4-.8-6.4-.7a.1.1,0,0,1-.1-.1c0-.1,0-.1.1-.1h0c.2,0,4.4-.4,6.5.8a.1.1,0,0,1-.1.1Z" fill="#fff"/></g><path d="M35.7,517.8,29,524.7a5.83,5.83,0,0,1-.2,2.3c-.4.8-2.1,2.5-1.7,3.4,1.5,3.6,7.2,3.5,7.2,3.5l9.7-7.6Z" fill="#f9b499"/><path d="M117.4,365.8c-13.6,0-23.7,1-23.7,1-4.3,1.9-11.8,11.8-14,18s-1.3,16.7-.2,22.1c6.4,30,17,47.3,19.5,59.2,1.5,7.3-5.7,3.4-5.7,21.8,0,16.5.6,51.7.6,51.7a15.61,15.61,0,0,0,11.8.9s10.2-58,11.3-64.6c1.8-10.8,2.4-15.3,2.6-33.9C120,415.8,117.4,365.8,117.4,365.8Z" fill="#2f2e41"/><path d="M44,526.3s40.8-41.5,44-45,16-72.3,16.8-77.4c0,0,12.8-13,13.2-23.9L76.4,359.2c-1.8,6.6-3.2,6.9-4.4,24.2-.6,8.9-2.6,45.3-4,88.5,0,0-4.3,2.3-10.8,8.6-5.3,5.2-21.5,37.2-21.5,37.2S37.7,524.2,44,526.3Z" fill="#2f2e41"/><path d="M116.5,295.8c.9.9,1.2,2.8-.4,8.3L96.7,287.8Z" fill="#889aaf"/><path d="M116.5,295.8c.9.9,1.2,2.8-.4,8.3L96.7,287.8Z" fill="#fff" opacity="0.2" style="isolation:isolate"/><polygon points="100.5 287.8 114.6 300.6 119.7 287.3 105.9 272.7 100.5 287.8" fill="#f9b499"/><path d="M114.5,302.8s2-4.8,1.1-6.1c-2.9-4.2-12.3-16.6-13.6-15.4s-5.3,6.5-5.3,6.5Z" fill="#889aaf"/><path d="M114.5,302.8s2-4.8,1.1-6.1c-2.9-4.2-12.3-16.6-13.6-15.4s-5.3,6.5-5.3,6.5Z" fill="#fff" opacity="0.2" style="isolation:isolate"/><path d="M116.1,304.1c1.2,5.6,1.1,14.8,1.9,34.2.5,12.5,1.8,48.9,1.8,48.9s-9.6,6.3-25.7,5c-15.4-1.2-22-8.8-22-8.8s1.6-51.1,6.7-71.2c7.5-20.8,18.1-24.4,18.1-24.4Z" fill="#889aaf"/><path d="M118.9,363,86,316.3c1.1,7.6,17.5,49.1,17.5,49.1l2.7-.2s3.3,7.7,4.8,9.9c.9,1.5,5.8,2.9,8.5,3.7C119.3,374.4,119.1,368.8,118.9,363Z" opacity="0.2" style="isolation:isolate"/><path d="M96.7,287.8l17.8,15,1.6,1.3a25.12,25.12,0,0,1,.4,2.7Z" opacity="0.2" style="isolation:isolate"/><path d="M85.3,312.2c-1.6-9.1,15.7-14.8,20.5-3.2,4.8,11.3,16.8,50.4,16.8,50.4s35.4,22.4,39,22c4.7-.5,16.6,12.5,15.2,14.5s-7.4,3.7-11.6,2.5c-3.5-1-6.9-7.3-8.2-8.3-6.9-2.3-39.7-13.2-44.1-17S86.4,318.1,85.3,312.2Z" fill="#f9b499"/><path d="M104.6,304.5a117.39,117.39,0,0,1,6.4,17.1c2,6.8,10.8,35,10.8,35s-5.8,7.1-14.1,7.9c0,0-6.5-13.4-10.5-21.7s-10.7-24.7-12.4-29.6,3.8-13.4,7.1-14.1S102.3,299.4,104.6,304.5Z" fill="#889aaf"/><path d="M720,556.2c-.8.9-.8,3.1,3,5.7s11.5,3.6,14.6,3.6,5.1-.4,9.3,1.5,11.6,3.1,14.2,1.7c1-.7.8-2.7.8-2.7Z" fill="#2f2e41"/><path d="M762.5,551.9c-.1,3.2.8,10.9-.6,14.2-3.7,2-10.4.7-15.1-1.7s-8.8-.6-15.1-1.6-11-3.8-11.7-6.7c-.8-3.1,10.5-2.9,18.3-3.6,8.7-.7,13.9-3.8,13.9-3.8Z" fill="#889aaf"/><g clip-path="url(#b8aaca58-d2bd-4603-9a69-382ee24e06cc)"><path d="M748.1,555.1a.1.1,0,0,1-.1-.1s-.6-4.4-2.2-6.1v-.2c0-.1.1,0,.2,0h0c1.7,1.8,2.2,6.1,2.3,6.3a.35.35,0,0,1-.2.1Z" fill="#fff"/><path d="M742.1,556c-.1,0-.1,0-.1-.1s-.6-4.4-2.2-6.2v-.2c0-.1.1,0,.2,0,1.7,1.8,2.2,6.1,2.3,6.3-.1.2-.1.2-.2.2Z" fill="#fff"/><path d="M736,557c-.1,0-.1,0-.1-.1s-.6-4.4-2.2-6.2v-.2c0-.1.1,0,.2,0h0c1.7,1.8,2.2,6.1,2.3,6.3-.1.1-.1.2-.2.2Z" fill="#fff"/></g><path d="M764.7,540.9l-2.2,11a5.19,5.19,0,0,0-2.2.7c-.7.6-2,2.7-3,2.5-3.9-.7-5.1-6.4-5.1-6.4l1.7-29.5Z" fill="#f9b499"/><path d="M816.9,567.5c.2,1.2,1.8,2.6,6.3,1.5s10.2-6.4,12.2-8.7,3-4.2,7.2-6.1,9.9-6.8,10.5-9.7c.1-1.2-1.5-2.4-1.5-2.4Z" fill="#2f2e41"/><path d="M841.3,532.4c2.4,2.1,8.8,6.4,10.4,9.7-.9,4.1-6.2,8.3-11.1,10.4s-6.1,6.3-11,10.5-10,5.8-12.7,4.5c-2.8-1.5,4.6-9.8,9.2-16.2,5.1-7.1,6.1-13,6.1-13Z" fill="#889aaf"/><g clip-path="url(#ee7f4f68-0493-4007-a88d-25e1236d5518)"><path d="M834.2,545.4h0c-.1,0-3.8-2.4-6.2-2.3-.1,0-.1,0-.2-.1s0-.1.1-.2h.1c2.5-.1,6.1,2.2,6.3,2.4.1,0,.1.1-.1.2h0C834.3,545.3,834.3,545.4,834.2,545.4Z" fill="#fff"/><path d="M831.1,550.6h0c-.1,0-3.6-2.3-6-2.3h-.2a.1.1,0,0,1-.1-.1c0-.1,0-.1.1-.1h.2c2.4,0,5.9,2.3,6.1,2.4,0-.1,0,0-.1.1Z" fill="#fff"/><path d="M827.9,555.8h0c-.1,0-3.8-2.4-6.2-2.3-.1,0-.1,0-.1-.1s0-.1.1-.1h.2c2.4,0,5.9,2.3,6.1,2.4a.1.1,0,0,1-.1.1Z" fill="#fff"/></g><path d="M838,524.8l3.3,7.5a4.69,4.69,0,0,0-.9,2.2c0,.9.7,3.3-.1,3.9-3.1,2.5-8.2-.2-8.2-.2L827,526.7Z" fill="#f9b499"/><path d="M763.7,366.4A99.41,99.41,0,0,0,789,356.2c4.8.9,12.4,14.4,16,20.1s-9.2,23.7-10,27.4c-5.2,23.5-9.7,40-13,50.8-2.3,7.3-5.6,16.1-6,18.9,3.3,10.4-11,68.3-11,68.3s-8,2.5-12.6-2.8c0,0,2.7-62.9,2.9-69.8.7-22.7,3.9-39.2,4.5-48.9C762.2,380,763.7,366.4,763.7,366.4Z" fill="#2f2e41"/><path d="M828.4,530.9S796.8,478,794.1,473c-2.3-4.2-13.1-69.3-13.9-74.6,0,0-16-20.2-16.4-31.3l29.6-8.2c1.8,6.8,11.4,6.9,18.7,23.2,6.3,14.2,4.6,44.5,1.3,83.5,0,0,5.5,2.9,8.2,10.7,3.8,10.7,17,49.9,17,49.9A12.15,12.15,0,0,1,828.4,530.9Z" fill="#2f2e41"/><path d="M838.6,526.1s-13.3-39.2-17-49.9c-2.8-7.8-8.2-10.7-8.2-10.7,3.3-38.9,5-69.3-1.3-83.5-7.3-16.3-16.9-16.4-18.7-23.2L763.8,367c.2,4.1,2.5,9.6,5.3,14.7,5.3-.6,19.7-2.5,27.8-6.7,0,0,7.8,10.5,10,30.1s2.4,53.7,2.1,60.7c-.1,2.9,3.7,2.9,8.8,12.9,4.2,8.2,14.3,39.5,18.2,49.7A6.4,6.4,0,0,0,838.6,526.1Z" opacity="0.2" style="isolation:isolate"/><g clip-path="url(#e84ecf64-3085-4f7e-8b37-8a39e0218ec9)"><g opacity="0.2"><path d="M834.6,533.8c-.1-.3-12.7-33.1-18.1-46.6a40.05,40.05,0,0,0-8.5-13.6c-1.5-1.6-2.5-2.8-2.8-4.3,0-.3-2-23.1-3.3-49.4-1.2-23.9-7.5-35.5-15.4-50.1-.8-1.5-1.7-3.1-2.6-4.8l.8-.4c.9,1.6,1.7,3.2,2.6,4.8,8,14.8,14.4,26.4,15.5,50.5,1.3,26.3,3.3,49.1,3.3,49.3.2,1.2,1.1,2.2,2.6,3.8a41.86,41.86,0,0,1,8.7,13.9c5.4,13.4,18,46.3,18.1,46.6Z"/><path d="M792.1,390.5c-3.7,0-7-2.2-9.4-6.5-3.8-6.5-7.6-18.2-7.6-18.4l.9-.3c0,.1,3.8,11.8,7.6,18.2,4.3,7.4,9.7,6.4,12.6,5.1l.4.8A9.08,9.08,0,0,1,792.1,390.5Z"/><path d="M823,526.8h-1.2l.1-.9c.1,0,12.5,1,16.3-7.6l.8.4C835.7,526,826.4,526.8,823,526.8Z"/></g></g><path d="M793.5,295a5.39,5.39,0,0,0,3.2,1.1c2.4,1.1,8.4,5.3,9.8,7.9,3.3,4.6,2.9,14.5-1.5,26.9-2.2,6.2-11.9,18.8-4.6,35.1,0,0-19.5,10.4-37.3,1.6-.3-9,1.9-14.3,2-24.2-2.5-2.7-5-7.8-5.2-11-.8-12.1,11.3-15.8,20.7-29.3,2.6-3.8,4.6-3.6,8.2-6.3A8.77,8.77,0,0,1,793.5,295Z" fill="#889aaf"/><path d="M805,330.9l.2-.4-1.2-4.8-5.8-13.9-6,1c-.6,7.6.3,21,2.5,30.7a90.83,90.83,0,0,0,3.1,10.5C797.7,343.5,803.4,335.4,805,330.9Z" opacity="0.2" style="isolation:isolate"/><path d="M794.6,294.3l-2.3-7.7-5.3-4.7-9,9.3s1.9,5.5,2.6,8.2a18.7,18.7,0,0,1,.3,3.4l-.4.2c.1,1.8-3.3,5.8-2.5,8.5s4.9.7,7.9-2.4,6.5-10.2,10.7-12.9A18,18,0,0,1,794.6,294.3Z" fill="#f9b499"/><path d="M752.7,371c1.9-.1,2.8-.5,1.9-1.2-1.7-1.4-3.3-2.3-3.5-4-.3-2,1.7-.6,2.8-.1,2.8,1.4,6.6,2.2,8.9,4.5,6.8-1.8,24.7-9.5,37.3-15.9,0,0-7-28.8-7.8-36.3-.8-7.2.2-14.6,8.3-16.5,3.9-.9,6.4,3.6,7.8,12.9s5.4,42.1,4.9,45.7-4.4,6.2-18.7,10.8c-8,2.6-31,8.3-31,8.3a24.92,24.92,0,0,1-5.8,2" fill="#f9b499"/><path d="M739.7,395.3V382.5A12.29,12.29,0,0,1,752,370.2h0a12.29,12.29,0,0,1,12.3,12.3h0v12.8" fill="none" stroke="#e6e7e8" stroke-linecap="round" stroke-miterlimit="10" stroke-width="0.83"/><polygon points="767.9 389.1 715.8 389.1 709.7 461.9 761.8 461.9 767.9 389.1" fill="#d1d3d4"/><polygon points="777 389.1 767.9 389.1 761.8 461.9 769.9 461.9 775 461.9 783.1 461.9 777 389.1" fill="#bcbec0"/><polygon points="761.8 461.9 772.5 452.3 783.1 461.9 761.8 461.9" fill="#a7a9ac"/><path d="M727.3,396.3a2.1,2.1,0,1,1,2.1,2.1h0a2.18,2.18,0,0,1-2.1-2.1Z" fill="#bcbec0"/><path d="M752,396.3a2.11,2.11,0,0,1,2.1-2.1,2.1,2.1,0,1,1-2.1,2.1Z" fill="#bcbec0"/><path d="M729.5,395.3V382.5a12.29,12.29,0,0,1,12.3-12.3h0a12.29,12.29,0,0,1,12.3,12.3v12.8" fill="none" stroke="#e6e7e8" stroke-linecap="round" stroke-miterlimit="10" stroke-width="0.83"/><path d="M757.8,381.4a28.33,28.33,0,0,1-11.6,0,21.72,21.72,0,0,1-2.4-.7c-3.6-1.3-8.2-5.1-6.3-9.5a4.72,4.72,0,0,1,2.3-2.7c1.4-.6,3,0,4.5.5a27,27,0,0,0,4.5,1.6c1.2.3,2.9.2,4,.4" fill="#f9b499"/><path d="M296.9,397.8a2.1,2.1,0,1,1,2.1,2.1h0a2.18,2.18,0,0,1-2.1-2.1Z" fill="#bcbec0"/><path d="M321.5,397.8a2.1,2.1,0,1,1,2.1,2.1h0a2.18,2.18,0,0,1-2.1-2.1Z" fill="#bcbec0"/><path d="M299,396.8V384a12.29,12.29,0,0,1,12.3-12.3h0A12.29,12.29,0,0,1,323.6,384v12.8" fill="none" stroke="#e6e7e8" stroke-linecap="round" stroke-miterlimit="10" stroke-width="0.83"/><path d="M787.7,249.5a12.31,12.31,0,0,1,9-1.1c5.4,1.2,10,8.3,10.1,18.3s-.8,19.2-4.1,22.8-9.5,7.6-16.3,6.9c0,0,3.8-7.5.7-14.4,0,0,3.7,2.3,7.1-2.2S787.7,249.5,787.7,249.5Z" fill="#2f2e41"/><path d="M778.5,292.7l1,3a15,15,0,0,0,7.5-13.8Z" fill="#f4a48e"/><path d="M787.7,249.5s-3.7-7.8-15.9-6-13.9,15.8-13,20.5a17.27,17.27,0,0,0,7.7,10.6Z" fill="#2f2e41"/><ellipse cx="775.23" cy="271.48" rx="22.2" ry="14" transform="translate(452.96 1027.01) rotate(-86.2)" fill="#f9b499"/><path d="M118.5,290.4l1.2-3.1-11.5-8.8S112.1,286.6,118.5,290.4Z" fill="#f4a48e"/><path d="M106,272.7a27,27,0,0,0,.8,3.9c.5,1.7,11.5,10.2,14.6,11.6s7.7,1.9,9.9-9.3,2.1-21.4-3.8-28.4-17.7-4.5-24.1,1.3S97.8,272.6,106,272.7Z" fill="#f9b499"/><path d="M106,272.7l-2.1,5.8s-2.3-.9-4.4-5.8c-2.2-5.3-6.5-14.4-4.6-18.9,1.5-3.4,4.9-5.3,8.4-5.9,1.2-.2,1.6.1,2.2-1,1.2-2.4,2.2-4.5,4.7-5.9a13.62,13.62,0,0,1,6.2-1.9c2.6-.2,5.4.6,8,1a53.06,53.06,0,0,0,16.4.1.66.66,0,0,1,.6.1,1,1,0,0,1,.2.7c-.5,4.6-3.8,7.1-7.9,8.5,0,0,6.4,5.8.9,7.3s-18.9-2.6-18.9-2.6,5.9,4.4,3.4,5.7-10.8-1.9-10.8-1.9l-.1,4.6s-3.2-2-5.7-.3C99.4,264.5,100.8,272.8,106,272.7Z" fill="#2f2e41"/><path d="M107.4,250.7l-.7-.2c-.1,0-7.9-2.6-7.5-10.6h.5c-.3,6.2,4.6,9,6.5,9.8-5.4-8.1,1-15.7,1-15.8l.3.3c-.1.1-6.5,7.8-.6,15.8Z" fill="#2f2e41"/><path d="M777.9,258.9s1.9-12.4,9.7-9.4c0,0,16.3,5.9,10.1,29a6.29,6.29,0,0,1-10.4,3.4C784.2,274.2,781.1,266.6,777.9,258.9Z" fill="#2f2e41"/><ellipse cx="787.4" cy="274.9" rx="4.6" ry="7" fill="#f9b499"/><path d="M763.7,252.1l16.9,4.3,2.1-8.4C782.8,248,771.4,244.3,763.7,252.1Z" fill="#2f2e41"/></svg>